<svg width="51" height="50" viewBox="0 0 51 50" fill="none" xmlns="http://www.w3.org/2000/svg">
<path d="M17.059 40.2211C17.059 40.4397 16.836 40.5958 16.5173 40.5958C16.1987 40.5958 15.9438 40.5958 15.9438 40.2211C15.9438 39.8464 16.1987 39.8464 16.4855 39.8464C16.7723 39.8464 17.059 40.0025 17.059 40.2211ZM13.8726 39.7527C13.8726 39.9713 13.8726 40.2211 14.3187 40.2836C14.4328 40.3373 14.564 40.3445 14.6835 40.3036C14.803 40.2626 14.9009 40.1768 14.956 40.065C14.956 39.8464 14.956 39.6278 14.5099 39.5341C14.0638 39.4405 13.9364 39.5341 13.8726 39.7527ZM18.3973 39.5966C18.1105 39.5966 17.9194 39.8464 17.9512 40.0962C17.9831 40.346 18.238 40.4397 18.5566 40.3773C18.8753 40.3148 19.0346 40.0962 19.0027 39.8776C18.9709 39.659 18.716 39.5654 18.3973 39.5966ZM25.1843 0.0019631C21.8239 -0.0290444 18.4916 0.605594 15.3876 1.86778C12.2835 3.12997 9.47169 4.99371 7.12076 7.34712C4.76986 9.70054 2.92834 12.4952 1.70674 15.5632C0.485133 18.6313 -0.0914147 21.9095 0.011761 25.2014C-0.0772034 30.5938 1.55471 35.8788 4.67953 40.3182C7.80434 44.7576 12.266 48.1298 17.4414 49.9637C18.7478 50.1822 19.2257 49.3704 19.2257 48.7146C19.2257 48.0589 19.2257 44.5303 19.2257 42.4694C19.2257 42.4694 12.0245 44.0307 10.495 39.3468C10.495 39.3468 9.34793 36.2242 7.65913 35.5684C7.65913 35.5684 5.30119 33.9447 7.81845 33.9759C8.6429 34.0849 9.42982 34.3818 10.116 34.8427C10.8022 35.3036 11.3686 35.916 11.7696 36.6301C12.103 37.2706 12.5664 37.8376 13.1314 38.296C13.6964 38.7547 14.3511 39.0954 15.0553 39.2971C15.7595 39.4989 16.4983 39.5576 17.2264 39.4695C17.9545 39.3814 18.6566 39.1482 19.2894 38.7847C19.4102 37.481 19.9837 36.2576 20.9145 35.3186C15.1791 34.6629 9.37979 33.851 9.37979 23.8899C9.31887 22.7645 9.50336 21.6394 9.92091 20.5896C10.3385 19.5398 10.9796 18.589 11.8015 17.8008C11.026 15.515 11.1165 13.032 12.0564 10.8062C14.2231 10.1192 19.162 13.5853 19.162 13.5853C23.3814 12.4191 27.8478 12.4191 32.0669 13.5853C32.0669 13.5853 37.0058 10.1192 39.1726 10.8062C40.133 13.0276 40.2235 15.518 39.4275 17.8008C40.2786 18.5781 40.9535 19.5216 41.4091 20.5705C41.8645 21.6194 42.0904 22.7501 42.0722 23.8899C42.0722 33.8822 36.018 34.6629 30.2825 35.3186C30.8589 35.9522 31.2977 36.6944 31.5717 37.4998C31.8454 38.3051 31.949 39.1566 31.8757 40.0025C31.8757 43.4999 31.8757 47.8091 31.8757 48.6522C31.8738 48.8629 31.9235 49.0712 32.021 49.2592C32.1188 49.4472 32.261 49.6096 32.4362 49.732C32.6111 49.8547 32.8141 49.934 33.027 49.9634C33.2401 49.993 33.4575 49.9715 33.6601 49.9012C38.8262 48.0832 43.2786 44.7208 46.3888 40.2889C49.4994 35.857 51.1101 30.5791 50.9941 25.2014C51.0241 21.8761 50.3763 18.5784 49.0887 15.5016C47.8011 12.4249 45.8994 9.63106 43.4956 7.28398C41.0918 4.9369 38.2336 3.08379 35.0892 1.83334C31.9449 0.582894 28.5775 -0.0397237 25.1843 0.0019631ZM10.0171 35.6309C10.0171 35.6309 10.0171 35.9744 10.0171 36.1617C10.0526 36.1967 10.0948 36.2245 10.1413 36.2432C10.1878 36.2623 10.2376 36.272 10.2879 36.272C10.3382 36.272 10.3881 36.2623 10.4346 36.2432C10.481 36.2245 10.5232 36.1967 10.5588 36.1617C10.5588 36.1617 10.5588 35.8182 10.5588 35.5997C10.5588 35.3811 10.1445 35.506 10.0171 35.6309ZM8.90183 34.7878C8.90183 34.7878 8.90183 35.1 9.12488 35.1937C9.15174 35.2265 9.18574 35.2527 9.22433 35.2708C9.26291 35.2886 9.30517 35.2983 9.34793 35.2983C9.39069 35.2983 9.43291 35.2886 9.4715 35.2708C9.51012 35.2527 9.54408 35.2265 9.57098 35.1937C9.57098 35.1937 9.57098 34.8815 9.34793 34.7878C9.12488 34.6941 8.96556 34.6941 8.90183 34.7878ZM12.0882 38.4725C12.0882 38.4725 12.0882 38.9096 12.0882 39.1282C12.0882 39.3468 12.6299 39.378 12.7574 39.1282C12.8848 38.8784 12.7574 38.691 12.7574 38.4725C12.7574 38.2539 12.3431 38.3163 12.2157 38.4725H12.0882ZM10.9093 36.9424C10.9093 36.9424 10.9093 37.3171 10.9093 37.5669C10.9093 37.8167 11.3554 37.9104 11.5147 37.8167C11.5954 37.7258 11.6398 37.6094 11.6398 37.4888C11.6398 37.3683 11.5954 37.2518 11.5147 37.161C11.3554 36.9112 11.1005 36.8175 10.9093 36.9424Z" fill="white"/>
</svg>
