<svg width="54" height="51" viewBox="0 0 54 51" fill="none" xmlns="http://www.w3.org/2000/svg">
<path d="M49.6789 0.00448451H4.62364C4.04292 -0.020703 3.4625 0.0603915 2.91566 0.243173C2.36882 0.425954 1.8663 0.706797 1.43681 1.06961C1.00735 1.43245 0.659359 1.87017 0.412821 2.35767C0.166283 2.8452 0.0259869 3.37295 0 3.91073V45.7233C0.0340192 46.8486 0.53209 47.9196 1.39192 48.7155C2.25175 49.5118 3.40813 49.973 4.62364 50.0046H49.6789C50.8604 49.9558 51.9745 49.4802 52.7821 48.6799C53.5897 47.8796 54.0264 46.8183 53.9988 45.7233V3.91073C54.0085 3.3873 53.9026 2.86758 53.6876 2.38339C53.4726 1.89923 53.153 1.46083 52.7483 1.09505C52.344 0.729297 51.8631 0.443923 51.3353 0.256392C50.8074 0.0688604 50.2438 -0.0168592 49.6789 0.00448451ZM16.8746 41.6921H9.01104V19.4108H16.8746V41.6921ZM13.1284 16.0357C12.5797 16.0535 12.0329 15.9659 11.5225 15.7786C11.0121 15.5913 10.549 15.3082 10.1623 14.9473C9.77566 14.5863 9.47378 14.1552 9.27567 13.681C9.07753 13.2069 8.98745 12.6999 9.01104 12.192C8.98678 11.6785 9.07868 11.1661 9.28087 10.6875C9.48306 10.2089 9.79105 9.7747 10.1851 9.4128C10.5791 9.05086 11.0505 8.7692 11.569 8.58589C12.0875 8.40255 12.6417 8.32161 13.1959 8.34824C13.7447 8.33055 14.2914 8.41808 14.8019 8.60539C15.3123 8.7927 15.7754 9.07574 16.1621 9.4367C16.5487 9.79767 16.8506 10.2288 17.0487 10.7029C17.2469 11.1771 17.3369 11.684 17.3134 12.192C17.3376 12.7054 17.2457 13.2179 17.0435 13.6965C16.8413 14.1751 16.5333 14.6093 16.1393 14.9712C15.7453 15.3331 15.2739 15.6148 14.7554 15.7981C14.2369 15.9814 13.6827 16.0624 13.1284 16.0357ZM45.0215 41.6921H37.1241V29.5046C37.1241 26.5983 36.0104 24.5983 33.2092 24.5983C32.3392 24.6052 31.4924 24.8611 30.7857 25.3311C30.0787 25.8011 29.5461 26.4621 29.2606 27.2233C29.0412 27.794 28.9494 28.3999 28.9906 29.0046V41.6921H21.2283V19.4108H28.9906V22.5358C29.6808 21.3618 30.7077 20.3874 31.9585 19.7199C33.2092 19.0527 34.6348 18.7186 36.0779 18.7545C41.174 18.7545 45.0215 21.8796 45.0215 28.5358V41.6921Z" fill="white"/>
</svg>
